<svg xmlns="http://www.w3.org/2000/svg" viewBox="200 150 1100 1100">
  <rect x="200" y="150" width="1100" height="1100" rx="80" fill="#22333B"/>
  <path fill="#C6AC8F" d="M1150.35,247.56c5.4-2.02,10.48-3.89,15.25-5.61,4.76-1.72,11.23-3.99,19.42-6.81,8.18-2.82,15.68-5.12,22.52-6.92,6.83-1.79,14.57-3.71,23.23-5.73,8.66-2.03,16.36-3.25,23.11-3.67,6.75-.42,13.54-.57,20.37-.46,6.83.11,12.43,1.36,16.8,3.75,4.37,2.39,7.98,5.43,10.84,9.13,2.86,3.7,4.21,8.84,4.05,15.4-.16,6.57-1.91,14.24-5.24,23.01-1.59,4.52-4.53,8.35-8.81,11.49-4.29,3.14-8.66,5.24-13.11,6.3-4.45,1.05-8.34,1.12-11.67.21-4.45-1.01-8.02-2.68-10.72-5.01-2.7-2.32-5.32-5.15-7.86-8.49-2.54-3.33-5.09-5.99-7.62-7.98-8.58-6.26-25.49-5.99-50.75.8-11.44,3.14-24.15,7.09-38.12,11.82-13.98,4.74-26.09,9.1-36.33,13.11-10.24,4-23.35,9.11-39.31,15.32-15.96,6.21-28.15,10.93-36.57,14.14-150.9,56.72-247.86,93.37-290.9,109.94v1.43c-6.04,40.52-19.06,122.59-39.07,246.23-2.54,15.81-6.4,38.46-11.55,67.95-5.17,29.49-8.3,47.77-9.41,54.82,18.9-7.46,47.17-18.63,84.82-33.49,37.64-14.87,65.91-26.03,84.82-33.49,6.51-2.56,11.83-1.57,15.96,2.96,4.13,4.54,5.4,10.21,3.81,17.03-1.59,6.82-5.96,11.7-13.1,14.64-20.33,8.43-50.95,21.08-91.85,37.94-40.9,16.86-71.52,29.43-91.85,37.7-.95,4.94-2.26,12.26-3.93,21.96-1.67,9.71-2.9,17-3.69,21.88,29.7,90.79,36.69,197.35,20.96,319.66-10.96,84.3-29.62,169.51-55.99,255.62-26.37,86.12-60.36,167.07-101.97,242.87-.48,3.34-1.39,9.06-2.74,17.14-1.35,8.09-2.26,14.36-2.74,18.81-.8,5.51-3.02,10.29-6.67,14.33-3.66,4.04-7.83,6.74-12.51,8.12-4.69,1.38-9.33,1.94-13.94,1.7-4.61-.24-8.46-1.82-11.55-4.72-3.1-2.91-4.57-6.77-4.41-11.59.63-18.49,1.63-38.84,2.98-61.07,1.35-22.23,2.7-41.19,4.05-56.91,1.35-15.71,3.18-36.79,5.48-63.24,2.3-26.44,4.01-46.05,5.12-58.82,12.87-155.64,37.56-349.27,74.1-580.88.79-4.88,1.98-12.16,3.57-21.84,1.58-9.68,2.78-16.96,3.57-21.84-14.29,5.88-24.7,10.1-31.21,12.65-4.61,1.91-12.51,5.3-23.7,10.19-11.2,4.89-20.33,8.79-27.4,11.7-7.07,2.91-15.25,5.53-24.54,7.85-9.29,2.33-17.27,3.21-23.95,2.64-5.72.06-9.33-2.54-10.84-7.82-1.51-5.27.6-10.96,6.31-17.06,2.7-2.67,5.56-5.13,8.58-7.36,3.02-2.23,6.51-4.35,10.48-6.35,3.97-2,7.11-3.56,9.41-4.67,2.3-1.11,5.96-2.68,10.96-4.73,5-2.04,8.22-3.38,9.65-4.04,17.15-7.34,33.99-14.32,50.51-20.96,4.29-1.79,8.81-3.63,13.58-5.51,4.77-1.88,10.04-3.94,15.84-6.17,5.8-2.23,10.28-3.98,13.46-5.23,3.18-19.52,5.64-34.18,7.39-44-28.27-36.01-62.58-64.22-102.93-84.64-19.7-10.05-41.42-18.1-65.16-24.14-23.75-6.04-45.27-10.26-64.57-12.67s-44-3.39-74.1-2.96c-30.1.44-53.57,1.21-70.4,2.32-16.84,1.11-42.33,3.02-76.48,5.72-9.21.79-16.12,1.34-20.73,1.66-.16-.1-.32-.21-.48-.31-.16-.1-.32-.13-.48-.07-10.33,1.65-19.94,3.61-28.83,5.88-10.33,2.6-18.94.29-25.85-6.94-6.91-7.23-9.21-16.13-6.91-26.69,2.3-10.56,9.65-18.53,22.04-23.91,14.13-6.14,29.9-12.44,47.29-18.9,17.39-6.46,31.69-11.54,42.88-15.24,11.2-3.7,27.68-9.05,49.44-16.07,21.76-7.02,36.53-11.78,44.31-14.31,21.44-7.06,51.94-17.68,91.49-31.86,39.55-14.17,67.58-24.1,84.1-29.79,55.27-18.87,138.34-48.35,249.21-88.43,6.19-6.9,12.98-11.58,20.37-14.04,7.39-2.46,14.49-2.73,21.32-.79,4.45-1.53,10.76-3.74,18.94-6.64,8.18-2.89,15.61-5.53,22.28-7.91,6.67-2.38,12.95-4.65,18.82-6.84,17.15-6.22,46.18-16.77,87.08-31.66,40.9-14.87,72.63-26.39,95.18-34.56,22.55-8.16,50.67-18.52,84.34-31.07,33.67-12.55,64.48-24.19,92.44-34.93ZM533.76,697.89c23.51,14.78,46.46,35.31,68.85,61.58,20.65-114.32,43.52-213.69,68.62-298.09-97.53,37.55-184.57,71.41-261.13,101.59-15.72,6.21-32.37,12.93-49.91,20.17-17.55,7.23-37.64,15.63-60.28,25.16-22.63,9.54-39.51,16.62-50.63,21.24,53.85-1.54,105.31,3.49,154.39,15.1,49.08,11.61,92.44,29.36,130.08,53.25ZM606.9,1487.76c15.56-47.61,28.71-94.27,39.43-139.97,10.72-45.71,19.1-91.72,25.14-138.03,6.03-46.31,8.46-91.78,7.27-136.4-1.19-44.62-6.23-86.36-15.13-125.24-2.54,14.53-9.29,52.32-20.25,113.35-10.96,61.03-18.35,102.25-22.16,123.66-3.81,21.4-10.21,57.99-19.18,109.77-8.98,51.77-15.96,92.94-20.97,123.49-5,30.55-10.84,67.06-17.51,109.55-6.67,42.48-12.71,82.36-18.11,119.64,21.44-47.09,41.93-100.37,61.47-159.83Z"/>
</svg>
